<svg width="120" height="37" viewBox="0 0 120 37" fill="none" xmlns="http://www.w3.org/2000/svg">
<g clip-path="url(#clip0)">
<path d="M2.91378 20.7693C2.91521 20.9611 2.87832 21.1512 2.80527 21.3287C2.73221 21.5061 2.62444 21.6673 2.48822 21.8029C2.35201 21.9385 2.19007 22.0458 2.01182 22.1185C1.83357 22.1912 1.64258 22.228 1.44995 22.2265C1.25951 22.2292 1.07055 22.193 0.894688 22.1203C0.71883 22.0475 0.559808 21.9396 0.427421 21.8033C0.289353 21.669 0.180395 21.508 0.107272 21.3302C0.0341481 21.1523 -0.0015891 20.9615 0.00226533 20.7693V1.4776C-0.0015891 1.28549 0.0341481 1.09462 0.107272 0.916787C0.180395 0.738954 0.289353 0.577924 0.427421 0.443637C0.559963 0.307545 0.719014 0.199814 0.894835 0.127041C1.07066 0.0542672 1.25955 0.0179825 1.44995 0.0204083C1.64035 0.0179825 1.82924 0.0542672 2.00506 0.127041C2.18088 0.199814 2.33993 0.307545 2.47248 0.443637C2.61081 0.578447 2.72086 0.739267 2.79625 0.916763C2.87164 1.09426 2.91085 1.28489 2.91162 1.4776V8.13944C4.14798 7.18691 5.60266 6.71046 7.27566 6.7101C8.23231 6.70618 9.17936 6.89991 10.0569 7.27905C10.9199 7.64807 11.7069 8.17281 12.3781 8.82679C13.052 9.48564 13.5918 10.2678 13.9678 11.1304C14.3594 12.0207 14.5589 12.9829 14.5534 13.9548V20.7693C14.5523 20.962 14.513 21.1526 14.4376 21.33C14.3622 21.5075 14.2523 21.6683 14.1142 21.8033C13.9798 21.9375 13.8201 22.044 13.6442 22.1166C13.4684 22.1892 13.2799 22.2266 13.0895 22.2266C12.8992 22.2266 12.7107 22.1892 12.5348 22.1166C12.359 22.044 12.1993 21.9375 12.0649 21.8033C11.9267 21.669 11.8177 21.508 11.7445 21.3302C11.6712 21.1524 11.6354 20.9615 11.6392 20.7693V13.9548C11.642 13.3769 11.5234 12.8048 11.291 12.2753C10.8404 11.2352 10.0073 10.406 8.96229 9.95772C8.43147 9.72543 7.85765 9.60644 7.27781 9.60842C6.69554 9.60406 6.11869 9.71989 5.58365 9.94861C4.53665 10.3976 3.70365 11.2309 3.25767 12.2753C3.02908 12.8058 2.91275 13.3776 2.91593 13.9548L2.91378 20.7693Z" fill="white"/>
<path d="M28.7314 20.7822V20.5047C28.0495 21.0513 27.2818 21.4826 26.4592 21.7813C25.6184 22.0814 24.731 22.2317 23.8378 22.2254C21.6812 22.2254 19.8408 21.4668 18.3167 19.9496C16.7926 18.4324 16.0305 16.6004 16.0305 14.4535C16.0305 12.307 16.7926 10.475 18.3167 8.95747C19.8408 7.43991 21.6812 6.68114 23.8378 6.68114C25.9754 6.68114 27.8158 7.43991 29.3589 8.95747C30.883 10.4747 31.6453 12.3067 31.6456 14.4535V20.7822C31.6383 21.162 31.4815 21.5239 31.2091 21.7899C30.9366 22.056 30.5702 22.205 30.1885 22.205C29.8068 22.205 29.4404 22.056 29.1679 21.7899C28.8955 21.5239 28.7387 21.162 28.7314 20.7822ZM23.8378 9.58159C23.1763 9.5765 22.521 9.70897 21.9138 9.97054C20.7464 10.469 19.8192 11.3995 19.3279 12.5656C19.0747 13.163 18.9442 13.8049 18.9442 14.4533C18.9442 15.1017 19.0747 15.7435 19.3279 16.3409C19.8192 17.5071 20.7464 18.4376 21.9138 18.936C22.5201 19.1927 23.172 19.325 23.8308 19.325C24.4896 19.325 25.1416 19.1927 25.7478 18.936C26.3289 18.6863 26.8566 18.3283 27.3026 17.8812C27.7454 17.4352 28.1001 16.9103 28.3482 16.334C28.6011 15.7389 28.7314 15.0994 28.7314 14.4533C28.7314 13.8072 28.6011 13.1676 28.3482 12.5726C28.0999 11.9963 27.7452 11.4715 27.3026 11.0254C26.8565 10.5785 26.3288 10.2204 25.7478 9.97054C25.1453 9.70989 24.4947 9.57742 23.8378 9.58159Z" fill="white"/>
<path d="M34.5286 6.68113H35.1841V1.46417C35.1817 1.27463 35.2181 1.08659 35.2912 0.911569C35.3643 0.736544 35.4725 0.578214 35.6093 0.446273C35.7442 0.308933 35.906 0.200536 36.0846 0.127752C36.2633 0.0549673 36.4549 0.0193339 36.6479 0.023044C37.0318 0.0238906 37.3998 0.175927 37.6714 0.445945C37.9431 0.715963 38.0963 1.08202 38.0978 1.46417V6.68274H39.8409C40.0307 6.67957 40.2191 6.71554 40.3942 6.78838C40.5693 6.86121 40.7274 6.96935 40.8586 7.10597C40.9935 7.23886 41.1001 7.39752 41.172 7.57243C41.2439 7.74735 41.2795 7.93491 41.2767 8.12386C41.2809 8.3154 41.2459 8.50578 41.1741 8.68349C41.1022 8.86121 40.9949 9.02257 40.8586 9.15783C40.7275 9.29456 40.5694 9.40276 40.3943 9.4756C40.2191 9.54845 40.0307 9.58435 39.8409 9.58106H38.0978V16.5627C38.0978 18.4042 39.0274 19.325 40.8866 19.325C41.0764 19.3217 41.2648 19.3576 41.4399 19.4304C41.6151 19.5033 41.7732 19.6115 41.9042 19.7482C42.0392 19.8811 42.1458 20.0398 42.2177 20.2147C42.2895 20.3896 42.3251 20.5771 42.3224 20.7661C42.3264 20.9576 42.2914 21.148 42.2196 21.3257C42.1477 21.5033 42.0404 21.6647 41.9042 21.8001C41.7732 21.9368 41.6151 22.045 41.4399 22.1178C41.2648 22.1907 41.0764 22.2266 40.8866 22.2233C37.0835 22.2233 35.1819 20.3357 35.1819 16.5606V9.58159H34.5286C34.34 9.58351 34.1531 9.54695 33.9792 9.47416C33.8054 9.40137 33.6484 9.29389 33.5179 9.15836C33.3798 9.02413 33.2708 8.86312 33.1976 8.68527C33.1245 8.50742 33.0888 8.31653 33.0928 8.1244C33.0903 7.93486 33.1268 7.74683 33.1999 7.5718C33.273 7.39678 33.3812 7.23845 33.5179 7.10651C33.6483 6.97069 33.8052 6.86289 33.9791 6.78973C34.1529 6.71658 34.3399 6.67962 34.5286 6.68113Z" fill="white"/>
<path d="M44.9686 6.68112H45.6235V1.46415C45.6212 1.27458 45.6577 1.08652 45.7309 0.911493C45.8041 0.736466 45.9124 0.578156 46.0492 0.446261C46.1841 0.308818 46.3459 0.200354 46.5245 0.127562C46.7032 0.0547696 46.8949 0.0191943 47.0879 0.0230313C47.4718 0.0238779 47.8397 0.175914 48.1114 0.445932C48.383 0.715951 48.5363 1.08201 48.5377 1.46415V6.68273H50.2803C50.4701 6.6795 50.6585 6.71544 50.8337 6.78828C51.0088 6.86112 51.1669 6.96929 51.298 7.10596C51.4331 7.23882 51.5397 7.39747 51.6117 7.57238C51.6836 7.74729 51.7194 7.93487 51.7167 8.12385C51.7207 8.31542 51.6857 8.50582 51.6138 8.68353C51.5418 8.86125 51.4344 9.02259 51.298 9.15782C51.167 9.29457 51.0089 9.40279 50.8337 9.47564C50.6586 9.54849 50.4701 9.58438 50.2803 9.58105H48.5377V16.5627C48.5377 18.4042 49.4672 19.325 51.326 19.325C51.5158 19.3216 51.7042 19.3575 51.8794 19.4304C52.0546 19.5032 52.2127 19.6114 52.3437 19.7482C52.4787 19.8811 52.5854 20.0397 52.6574 20.2146C52.7293 20.3895 52.765 20.5771 52.7624 20.7661C52.7663 20.9576 52.7312 21.148 52.6593 21.3257C52.5873 21.5034 52.48 21.6648 52.3437 21.8001C52.2127 21.9368 52.0546 22.045 51.8794 22.1179C51.7042 22.1907 51.5158 22.2266 51.326 22.2233C47.5229 22.2233 45.6214 20.3357 45.6214 16.5606V9.58158H44.9686C44.78 9.5836 44.593 9.54708 44.4192 9.47428C44.2453 9.40149 44.0883 9.29396 43.9579 9.15836C43.8197 9.02413 43.7107 8.86311 43.6376 8.68526C43.5645 8.50741 43.5288 8.31652 43.5327 8.12439C43.5303 7.93485 43.5667 7.74682 43.6399 7.57179C43.713 7.39677 43.8212 7.23844 43.9579 7.1065C44.0882 6.97061 44.2451 6.86275 44.419 6.78959C44.5928 6.71643 44.7799 6.67951 44.9686 6.68112Z" fill="white"/>
<path d="M66.743 20.7822V20.5047C66.0611 21.0513 65.2935 21.4826 64.4709 21.7813C63.63 22.0814 62.7427 22.2317 61.8494 22.2254C59.6932 22.2254 57.8528 21.4668 56.3283 19.9496C54.8039 18.4324 54.0418 16.6004 54.0422 14.4535C54.0422 12.307 54.8042 10.475 56.3283 8.95747C57.8524 7.43991 59.6928 6.68114 61.8494 6.68114C63.9871 6.68114 65.8274 7.43991 67.3705 8.95747C68.8954 10.4747 69.6576 12.3067 69.6572 14.4535V20.7822C69.6499 21.162 69.4932 21.5239 69.2207 21.7899C68.9482 22.056 68.5818 22.205 68.2001 22.205C67.8185 22.205 67.452 22.056 67.1796 21.7899C66.9071 21.5239 66.7504 21.162 66.743 20.7822ZM61.8494 9.58159C61.1879 9.5765 60.5326 9.70897 59.9255 9.97054C58.759 10.4695 57.8329 11.4 57.3422 12.5656C57.089 13.163 56.9585 13.8049 56.9585 14.4533C56.9585 15.1017 57.089 15.7435 57.3422 16.3409C57.8329 17.5066 58.759 18.437 59.9255 18.936C60.5317 19.1927 61.1837 19.325 61.8424 19.325C62.5012 19.325 63.1532 19.1927 63.7594 18.936C64.3406 18.6865 64.8683 18.3284 65.3142 17.8812C65.757 17.4352 66.1117 16.9103 66.3599 16.334C66.6127 15.7389 66.743 15.0994 66.743 14.4533C66.743 13.8072 66.6127 13.1676 66.3599 12.5726C66.1116 11.9963 65.7569 11.4715 65.3142 11.0254C64.8682 10.5784 64.3405 10.2203 63.7594 9.97054C63.1569 9.70989 62.5064 9.57742 61.8494 9.58159Z" fill="white"/>
<path d="M93.2163 20.7682C93.2201 20.9603 93.1844 21.1512 93.1113 21.329C93.0381 21.5069 92.9292 21.6679 92.7911 21.8022C92.5182 22.0732 92.1484 22.2254 91.7629 22.2254C91.3774 22.2254 91.0077 22.0732 90.7347 21.8022C90.5986 21.6668 90.4913 21.5055 90.4194 21.3278C90.3476 21.1501 90.3126 20.9597 90.3166 20.7682V12.871C90.3185 12.4369 90.2308 12.0071 90.0588 11.6082C89.892 11.2181 89.653 10.8626 89.3543 10.5604C89.0529 10.2569 88.6955 10.0143 88.3017 9.84569C87.8904 9.66831 87.4464 9.57835 86.9982 9.58157C86.5568 9.57884 86.1198 9.66884 85.7158 9.84569C85.3244 10.0156 84.9676 10.2555 84.6631 10.5534C84.3601 10.8508 84.1185 11.2044 83.9522 11.5943C83.7789 11.9977 83.6909 12.4323 83.6939 12.871V20.7682C83.6977 20.9603 83.662 21.1512 83.5889 21.329C83.5157 21.5069 83.4068 21.6679 83.2687 21.8022C83.1362 21.9383 82.9771 22.046 82.8013 22.1188C82.6255 22.1916 82.4366 22.2278 82.2462 22.2254C82.0536 22.2268 81.8626 22.1901 81.6843 22.1174C81.5061 22.0447 81.3441 21.9374 81.2079 21.8018C81.0717 21.6662 80.9639 21.505 80.8909 21.3275C80.8178 21.1501 80.7809 20.96 80.7824 20.7682V12.871C80.7852 12.4316 80.695 11.9966 80.5176 11.5943C80.1761 10.8107 79.5481 10.1857 78.761 9.84569C78.3567 9.66889 77.9196 9.5789 77.478 9.58157C77.0373 9.5786 76.6007 9.66614 76.1955 9.83872C75.4018 10.175 74.7697 10.8042 74.432 11.5943C74.2586 11.9977 74.1707 12.4323 74.1736 12.871V20.7682C74.1775 20.9603 74.1417 21.1512 74.0686 21.329C73.9955 21.5069 73.8865 21.6679 73.7485 21.8022C73.616 21.9384 73.457 22.0463 73.2812 22.119C73.1053 22.1918 72.9164 22.228 72.7259 22.2254C72.5333 22.2268 72.3423 22.1901 72.1641 22.1174C71.9858 22.0447 71.8239 21.9374 71.6877 21.8018C71.5515 21.6662 71.4437 21.505 71.3706 21.3275C71.2976 21.1501 71.2607 20.96 71.2621 20.7682V8.12491C71.263 7.74239 71.416 7.37579 71.6877 7.10531C71.9594 6.83483 72.3277 6.68249 72.712 6.68165C73.0218 6.67665 73.325 6.77155 73.5763 6.95219C73.8231 7.12689 74.0046 7.37828 74.0924 7.66686C75.0869 7.01005 76.2162 6.68165 77.4802 6.68165C78.3832 6.6761 79.277 6.86297 80.1016 7.2297C80.9192 7.59543 81.6348 8.14902 82.2483 8.89047C83.54 7.41935 85.1247 6.68379 87.0025 6.68379C87.8299 6.68009 88.649 6.84795 89.4076 7.17666C90.8999 7.81085 92.0887 8.99403 92.726 10.4795C93.056 11.2347 93.2244 12.0501 93.2206 12.8737L93.2163 20.7682Z" fill="white"/>
<path d="M19.9371 28.3965C20.2026 28.3965 20.382 28.5321 20.4753 28.8031L21.5678 32.0213L22.6979 28.703C22.7271 28.611 22.7881 28.5324 22.8701 28.4812C22.9706 28.421 23.0867 28.3916 23.2038 28.3965C23.2795 28.3958 23.3545 28.4102 23.4245 28.4388C23.4912 28.466 23.5516 28.5065 23.6021 28.5578C23.6525 28.6092 23.6935 28.6691 23.7231 28.7346C23.7538 28.8019 23.7694 28.875 23.7689 28.9489C23.7677 29.0213 23.7531 29.0928 23.7258 29.1599L22.0936 33.9601C22.0622 34.061 22.0002 34.1498 21.916 34.2141C21.8142 34.2804 21.695 34.3153 21.5734 34.3144C21.4518 34.3134 21.3332 34.2766 21.2325 34.2087C21.1436 34.149 21.0773 34.0615 21.0441 33.9601L19.936 30.6921L18.8274 33.9601C18.7936 34.0642 18.7253 34.1537 18.6337 34.2141C18.5357 34.2813 18.419 34.3164 18.3 34.3142C18.1818 34.3165 18.0659 34.2814 17.969 34.2141C17.8782 34.1524 17.8095 34.0634 17.7731 33.9601L16.1425 29.1573C16.1191 29.0892 16.1064 29.018 16.1048 28.9462C16.1042 28.8726 16.1188 28.7996 16.1478 28.7319C16.176 28.6662 16.2161 28.6062 16.2662 28.5551C16.3165 28.5036 16.3769 28.463 16.4438 28.4362C16.5324 28.4016 16.6278 28.3879 16.7226 28.3962C16.8173 28.4045 16.9089 28.4345 16.9901 28.4838C17.071 28.5349 17.134 28.6098 17.1704 28.6981L18.3005 32.0111L19.393 28.7967C19.4867 28.5299 19.668 28.3965 19.9371 28.3965Z" fill="#16A085"/>
<path d="M29.0015 32.6497C29.0755 32.6473 29.1492 32.6599 29.2181 32.6867C29.287 32.7135 29.3497 32.754 29.4025 32.8056C29.4553 32.8566 29.4969 32.9179 29.5247 32.9856C29.5525 33.0534 29.5658 33.1262 29.5639 33.1994C29.5653 33.2729 29.5517 33.3459 29.5239 33.414C29.4962 33.4822 29.4549 33.544 29.4025 33.5958C28.8464 34.0748 28.19 34.3142 27.4333 34.3142C27.0373 34.3211 26.644 34.2478 26.2773 34.0988C25.9105 33.9498 25.5781 33.7282 25.3 33.4474C25.0207 33.1744 24.7989 32.8488 24.6474 32.4895C24.496 32.1302 24.418 31.7445 24.418 31.3548C24.418 30.9652 24.496 30.5795 24.6474 30.2202C24.7989 29.8609 25.0207 29.5352 25.3 29.2623C25.8689 28.707 26.6339 28.396 27.4306 28.396C28.2274 28.396 28.9923 28.707 29.5612 29.2623C29.8447 29.5323 30.0699 29.8569 30.2232 30.2164C30.3723 30.5774 30.4473 30.9645 30.4438 31.3548C30.4462 31.4281 30.4331 31.501 30.4052 31.5688C30.3774 31.6367 30.3356 31.6979 30.2824 31.7486C30.2292 31.7996 30.1664 31.8397 30.0976 31.8664C30.0288 31.8932 29.9553 31.9061 29.8815 31.9045H25.6175C25.6769 32.0951 25.7679 32.2746 25.8866 32.4354C26.0029 32.5938 26.1437 32.7329 26.3037 32.8474C26.4644 32.9631 26.6421 33.0535 26.8306 33.1153C27.0241 33.1792 27.2267 33.2114 27.4306 33.2106C27.6523 33.2125 27.8726 33.1763 28.0818 33.1035C28.2822 33.0309 28.468 32.9235 28.6307 32.7863C28.735 32.6998 28.8659 32.6516 29.0015 32.6497ZM29.2437 30.8057C29.1842 30.6146 29.0923 30.435 28.9719 30.2748C28.7348 29.9563 28.4039 29.719 28.0253 29.596C27.8336 29.5324 27.6327 29.5002 27.4306 29.5007C27.2276 29.5003 27.0259 29.5325 26.8332 29.596C26.6432 29.6578 26.4637 29.7481 26.301 29.8639C26.1399 29.9781 25.9982 30.1172 25.8812 30.2759C25.7627 30.4361 25.6735 30.6158 25.6175 30.8068L29.2437 30.8057Z" fill="#16A085"/>
<path d="M32.1536 29.0544C32.6882 28.6176 33.3177 28.3992 34.0421 28.3992C34.4374 28.3939 34.8298 28.4679 35.1959 28.6167C35.5619 28.7655 35.8941 28.9862 36.1727 29.2655C36.456 29.5356 36.6812 29.8602 36.8347 30.2196C36.9836 30.5807 37.0584 30.9678 37.0548 31.3581C37.0548 32.1795 36.7608 32.876 36.1727 33.4475C35.6038 34.0027 34.8388 34.3137 34.0421 34.3137C33.2453 34.3137 32.4804 34.0027 31.9115 33.4475C31.6275 33.1785 31.4024 32.8542 31.2503 32.4946C31.0981 32.1351 31.0222 31.7482 31.0272 31.3581V26.4095C31.0255 26.3364 31.039 26.2638 31.0667 26.1961C31.0945 26.1284 31.136 26.0672 31.1887 26.0163C31.2415 25.9647 31.3042 25.9243 31.3731 25.8975C31.442 25.8707 31.5157 25.8581 31.5896 25.8604C31.6635 25.8587 31.737 25.8716 31.8058 25.8984C31.8746 25.9251 31.9374 25.9652 31.9906 26.0163C32.0437 26.0669 32.0855 26.128 32.1134 26.1958C32.1412 26.2635 32.1544 26.3363 32.152 26.4095L32.1536 29.0544ZM34.041 33.2101C34.2944 33.2118 34.5454 33.1615 34.7783 33.0623C35.2279 32.8721 35.587 32.5173 35.7815 32.0711C35.8791 31.845 35.9294 31.6015 35.9294 31.3554C35.9294 31.1093 35.8791 30.8658 35.7815 30.6397C35.587 30.1935 35.2279 29.8388 34.7783 29.6486C34.5439 29.551 34.2924 29.5007 34.0383 29.5007C33.7843 29.5007 33.5327 29.551 33.2983 29.6486C33.0758 29.7428 32.8732 29.8782 32.7015 30.0477C32.5313 30.2168 32.3952 30.4169 32.3006 30.637C32.2029 30.864 32.1526 31.1084 32.1526 31.3554C32.1526 31.6024 32.2029 31.8468 32.3006 32.0738C32.3952 32.2939 32.5313 32.494 32.7015 32.6631C32.8732 32.8326 33.0758 32.9681 33.2983 33.0623C33.5331 33.1618 33.7859 33.2122 34.041 33.2101Z" fill="#16A085"/>
<path d="M43.6064 28.3965C44.2928 28.387 44.9609 28.6169 45.4949 29.0464V26.4095C45.4927 26.3366 45.5056 26.264 45.533 26.1963C45.5603 26.1287 45.6014 26.0674 45.6536 26.0163C45.7064 25.9646 45.7691 25.9242 45.8381 25.8974C45.907 25.8706 45.9806 25.858 46.0546 25.8604C46.1284 25.8587 46.2017 25.8716 46.2705 25.8984C46.3392 25.9251 46.4019 25.9652 46.455 26.0163C46.5087 26.0665 46.5511 26.1276 46.5794 26.1954C46.6077 26.2631 46.6212 26.3361 46.6191 26.4095V31.3581C46.6191 32.1827 46.3251 32.8803 45.7371 33.4506C45.1681 34.0059 44.4032 34.3169 43.6064 34.3169C42.8097 34.3169 42.0447 34.0059 41.4758 33.4506C41.1963 33.1778 40.9743 32.8522 40.8227 32.4928C40.6712 32.1335 40.5931 31.7478 40.5931 31.3581C40.5931 30.9684 40.6712 30.5826 40.8227 30.2233C40.9743 29.864 41.1963 29.5383 41.4758 29.2655C41.7534 28.9846 42.0853 28.7627 42.4516 28.6133C42.8178 28.464 43.2107 28.3902 43.6064 28.3965ZM45.4949 31.3581C45.4963 31.1118 45.4459 30.868 45.3469 30.6423C45.1524 30.196 44.7931 29.8412 44.3432 29.6512C44.1089 29.5536 43.8575 29.5034 43.6035 29.5034C43.3495 29.5034 43.0981 29.5536 42.8638 29.6512C42.4148 29.8393 42.0568 30.1937 41.8655 30.6396C41.7682 30.8668 41.718 31.1111 41.718 31.3581C41.718 31.605 41.7682 31.8493 41.8655 32.0765C42.0568 32.5224 42.4148 32.8768 42.8638 33.0649C43.0981 33.1625 43.3495 33.2127 43.6035 33.2127C43.8575 33.2127 44.1089 33.1625 44.3432 33.0649C44.7931 32.875 45.1524 32.5201 45.3469 32.0738C45.4459 31.8481 45.4963 31.6043 45.4949 31.3581Z" fill="#16A085"/>
<path d="M51.7889 32.6497C51.8628 32.6474 51.9364 32.66 52.0054 32.6868C52.0743 32.7136 52.137 32.754 52.1898 32.8056C52.242 32.8569 52.2831 32.9183 52.3104 32.986C52.3377 33.0538 52.3507 33.1264 52.3486 33.1994C52.3499 33.2729 52.3363 33.3459 52.3086 33.414C52.2808 33.4822 52.2395 33.544 52.1871 33.5958C51.608 34.084 50.8667 34.3393 50.1083 34.3119C49.35 34.2844 48.6293 33.9762 48.0873 33.4474C47.8078 33.1746 47.5858 32.8489 47.4342 32.4896C47.2827 32.1303 47.2046 31.7445 47.2046 31.3548C47.2046 30.9651 47.2827 30.5794 47.4342 30.2201C47.5858 29.8607 47.8078 29.5351 48.0873 29.2623C48.6562 28.707 49.4212 28.396 50.2179 28.396C51.0147 28.396 51.7796 28.707 52.3486 29.2623C52.6319 29.5323 52.8569 29.8569 53.01 30.2164C53.1593 30.5774 53.2344 30.9645 53.2306 31.3548C53.2327 31.4283 53.2191 31.5013 53.1908 31.5692C53.1625 31.637 53.1202 31.6982 53.0665 31.7486C53.0134 31.7997 52.9505 31.8398 52.8817 31.8666C52.8129 31.8933 52.7394 31.9062 52.6655 31.9045H48.4043C48.4639 32.0951 48.5549 32.2744 48.6734 32.4354C48.7897 32.5938 48.9305 32.7329 49.0905 32.8474C49.2514 32.9631 49.4293 33.0535 49.6179 33.1153C49.8114 33.1792 50.014 33.2114 50.2179 33.2106C50.4394 33.2125 50.6595 33.1763 50.8686 33.1035C51.0691 33.0311 51.255 32.9237 51.4175 32.7863C51.5219 32.6997 51.653 32.6515 51.7889 32.6497ZM52.031 30.8057C51.972 30.6149 51.881 30.4355 51.762 30.2748C51.5244 29.9564 51.1935 29.7192 50.8148 29.596C50.6239 29.5326 50.424 29.5004 50.2228 29.5007C50.0198 29.5003 49.8181 29.5325 49.6254 29.596C49.4351 29.6578 49.2555 29.7481 49.0926 29.8639C48.9315 29.9781 48.7898 30.1172 48.6728 30.2759C48.5545 30.4362 48.4653 30.6159 48.4091 30.8068L52.031 30.8057Z" fill="#16A085"/>
<path d="M56.6195 34.3142C56.3827 34.3142 56.2176 34.2156 56.1243 34.0185L53.8538 29.168C53.8256 29.0974 53.8109 29.0222 53.8107 28.9462C53.8099 28.8726 53.8245 28.7995 53.8538 28.7319C53.8815 28.666 53.9217 28.606 53.9722 28.5551C54.0224 28.5036 54.0829 28.4631 54.1498 28.4362C54.2197 28.4075 54.2948 28.3931 54.3704 28.3939C54.4682 28.394 54.5644 28.4185 54.6503 28.4651C54.7384 28.5113 54.8111 28.5821 54.8596 28.6687L56.6195 32.4359L58.3734 28.6794C58.4192 28.5907 58.4898 28.5171 58.5767 28.4674C58.6636 28.4177 58.763 28.394 58.8631 28.3992C58.9387 28.3986 59.0138 28.4129 59.0837 28.4415C59.1504 28.4686 59.2107 28.5091 59.2608 28.5605C59.3116 28.6116 59.3526 28.6715 59.3819 28.7373C59.4129 28.8053 59.429 28.8792 59.429 28.954C59.429 29.0287 59.4129 29.1026 59.3819 29.1707L57.1167 34.0212C57.0729 34.114 57.0021 34.1916 56.9134 34.2439C56.8247 34.2961 56.7223 34.3206 56.6195 34.3142Z" fill="#16A085"/>
<path d="M64.5811 32.6497C64.6551 32.6474 64.7287 32.66 64.7976 32.6868C64.8665 32.7136 64.9293 32.754 64.9821 32.8056C65.0348 32.8567 65.0763 32.918 65.1041 32.9857C65.1319 33.0535 65.1453 33.1262 65.1435 33.1994C65.1449 33.2729 65.1313 33.3459 65.1035 33.414C65.0758 33.4822 65.0345 33.544 64.9821 33.5958C64.426 34.0748 63.7696 34.3143 63.0129 34.3143C62.6169 34.3212 62.2235 34.248 61.8568 34.0989C61.4901 33.9499 61.1576 33.7283 60.8796 33.4474C60.6001 33.1746 60.3781 32.849 60.2265 32.4896C60.075 32.1303 59.9969 31.7446 59.9969 31.3549C59.9969 30.9652 60.075 30.5794 60.2265 30.2201C60.3781 29.8607 60.6001 29.5351 60.8796 29.2623C61.4485 28.707 62.2135 28.396 63.0102 28.396C63.807 28.396 64.5719 28.707 65.1408 29.2623C65.4241 29.5323 65.6492 29.8569 65.8022 30.2164C65.9516 30.5774 66.0266 30.9645 66.0229 31.3549C66.0254 31.4281 66.0123 31.5011 65.9845 31.5689C65.9567 31.6368 65.9147 31.698 65.8614 31.7486C65.8084 31.7997 65.7457 31.8397 65.6769 31.8665C65.6082 31.8933 65.5348 31.9062 65.461 31.9045H61.1971C61.2565 32.0952 61.3474 32.2746 61.4662 32.4354C61.5826 32.5937 61.7234 32.7327 61.8833 32.8474C62.0442 32.9631 62.2221 33.0535 62.4107 33.1153C62.6042 33.1792 62.8069 33.2114 63.0108 33.2106C63.2322 33.2126 63.4524 33.1763 63.6614 33.1035C63.8619 33.0311 64.0478 32.9237 64.2103 32.7863C64.3145 32.6998 64.4455 32.6516 64.5811 32.6497ZM64.8233 30.8057C64.7642 30.615 64.6733 30.4355 64.5542 30.2748C64.3167 29.9564 63.9858 29.7192 63.607 29.596C63.4162 29.5326 63.2163 29.5004 63.0151 29.5007C62.8121 29.5003 62.6104 29.5325 62.4177 29.596C62.2274 29.6578 62.0478 29.7481 61.8849 29.8639C61.7238 29.9781 61.5821 30.1172 61.4651 30.2759C61.3468 30.4361 61.2577 30.6158 61.202 30.8068L64.8233 30.8057Z" fill="#16A085"/>
<path d="M66.5546 33.7646V26.4149C66.5546 26.3417 66.5691 26.2692 66.5972 26.2016C66.6254 26.134 66.6666 26.0726 66.7186 26.0209C66.7705 25.9691 66.8322 25.9281 66.9001 25.9001C66.968 25.8721 67.0408 25.8577 67.1143 25.8577C67.1878 25.8577 67.2606 25.8721 67.3285 25.9001C67.3964 25.9281 67.4581 25.9691 67.5101 26.0209C67.5621 26.0726 67.6033 26.134 67.6314 26.2016C67.6595 26.2692 67.674 26.3417 67.674 26.4149V33.2101H67.9318C68.0052 33.2088 68.0782 33.2224 68.1462 33.25C68.2142 33.2776 68.2758 33.3187 68.3274 33.3708C68.3806 33.4215 68.4226 33.4826 68.4509 33.5503C68.4792 33.618 68.493 33.6908 68.4915 33.7641C68.4926 33.8366 68.4786 33.9086 68.4504 33.9754C68.4221 34.0423 68.3802 34.1026 68.3274 34.1525C68.2758 34.2046 68.2142 34.2457 68.1462 34.2733C68.0782 34.3009 68.0052 34.3145 67.9318 34.3132H67.1089C67.0362 34.3135 66.9642 34.2995 66.897 34.272C66.8297 34.2445 66.7686 34.204 66.7171 34.153C66.6656 34.1019 66.6247 34.0412 66.5969 33.9744C66.569 33.9075 66.5546 33.8359 66.5546 33.7635V33.7646Z" fill="#16A085"/>
<path d="M74.9421 31.3581C74.9421 32.1795 74.6479 32.876 74.0595 33.4474C73.4906 34.0027 72.7256 34.3137 71.9289 34.3137C71.1321 34.3137 70.3672 34.0027 69.7982 33.4474C69.5188 33.1746 69.2967 32.8489 69.1452 32.4896C68.9936 32.1303 68.9155 31.7446 68.9155 31.3549C68.9155 30.9652 68.9936 30.5794 69.1452 30.2201C69.2967 29.8608 69.5188 29.5351 69.7982 29.2623C70.1502 28.9178 70.5812 28.6638 71.0539 28.5224C71.5266 28.3809 72.0268 28.3562 72.5113 28.4503C72.9957 28.5445 73.4498 28.7547 73.8344 29.0628C74.2189 29.3709 74.5222 29.7676 74.7182 30.2186C74.8664 30.5803 74.9425 30.9674 74.9421 31.3581ZM71.9283 29.5034C71.6732 29.5012 71.4203 29.5516 71.1856 29.6512C70.7367 29.8393 70.3787 30.1937 70.1873 30.6397C70.0897 30.8667 70.0393 31.1111 70.0393 31.3581C70.0393 31.605 70.0897 31.8494 70.1873 32.0765C70.3787 32.5224 70.7367 32.8768 71.1856 33.0649C71.4199 33.1625 71.6714 33.2128 71.9254 33.2128C72.1793 33.2128 72.4308 33.1625 72.6651 33.0649C73.115 32.875 73.4743 32.5201 73.6688 32.0738C73.7664 31.8477 73.8168 31.6042 73.8168 31.3581C73.8168 31.112 73.7664 30.8684 73.6688 30.6423C73.4743 30.196 73.115 29.8412 72.6651 29.6512C72.4325 29.5511 72.1817 29.4998 71.9283 29.5007V29.5034Z" fill="#16A085"/>
<path d="M78.5403 34.3143C77.8191 34.3143 77.1895 34.0976 76.6513 33.6644V36.3013C76.6537 36.3745 76.6406 36.4473 76.6128 36.5151C76.585 36.5828 76.5431 36.644 76.4899 36.6945C76.4368 36.7456 76.3741 36.7856 76.3053 36.8124C76.2366 36.8392 76.1632 36.8521 76.0894 36.8504C76.0155 36.8528 75.9418 36.8402 75.8729 36.8134C75.804 36.7866 75.7413 36.7462 75.6885 36.6945C75.6358 36.6437 75.5942 36.5824 75.5664 36.5148C75.5386 36.4471 75.5252 36.3744 75.5271 36.3013V31.3581C75.5213 30.9676 75.5966 30.5801 75.7484 30.22C75.9002 29.8599 76.1252 29.5349 76.4091 29.2655C76.9781 28.7102 77.7432 28.3992 78.54 28.3992C79.3369 28.3992 80.1019 28.7102 80.6709 29.2655C80.9542 29.5355 81.1793 29.8601 81.3323 30.2196C81.4815 30.5807 81.5565 30.9677 81.553 31.3581C81.553 32.1827 81.259 32.8803 80.6709 33.4507C80.3892 33.7295 80.0556 33.9512 79.6888 34.1032C79.3233 34.247 78.9332 34.3187 78.5403 34.3143ZM76.6513 31.3581C76.65 31.6052 76.7004 31.8498 76.7993 32.0765C76.9907 32.5224 77.3486 32.8768 77.7976 33.0649C78.0319 33.1625 78.2834 33.2128 78.5373 33.2128C78.7913 33.2128 79.0428 33.1625 79.2771 33.0649C79.727 32.875 80.0863 32.5201 80.2807 32.0738C80.3784 31.8477 80.4287 31.6042 80.4287 31.3581C80.4287 31.112 80.3784 30.8684 80.2807 30.6423C80.0863 30.196 79.727 29.8412 79.2771 29.6512C79.0428 29.5536 78.7913 29.5034 78.5373 29.5034C78.2834 29.5034 78.0319 29.5536 77.7976 29.6512C77.3486 29.8393 76.9907 30.1937 76.7993 30.6397C76.7004 30.8663 76.65 31.111 76.6513 31.3581Z" fill="#16A085"/>
<path d="M86.7227 32.6497C86.7967 32.6474 86.8703 32.66 86.9392 32.6868C87.0081 32.7136 87.0709 32.754 87.1237 32.8056C87.1758 32.8569 87.2168 32.9183 87.244 32.9861C87.2712 33.0538 87.2841 33.1264 87.2819 33.1994C87.2831 33.2729 87.2695 33.3459 87.2417 33.414C87.214 33.4821 87.1727 33.5439 87.1204 33.5958C86.5413 34.0841 85.7999 34.3396 85.0415 34.3122C84.2831 34.2849 83.5622 33.9767 83.0201 33.448C82.7408 33.175 82.5189 32.8493 82.3675 32.49C82.216 32.1307 82.138 31.745 82.138 31.3554C82.138 30.9657 82.216 30.58 82.3675 30.2207C82.5189 29.8614 82.7408 29.5358 83.0201 29.2628C83.589 28.7075 84.354 28.3965 85.1507 28.3965C85.9474 28.3965 86.7124 28.7075 87.2813 29.2628C87.565 29.5326 87.7902 29.8573 87.9433 30.2169C88.0924 30.578 88.1674 30.965 88.164 31.3554C88.1663 31.4286 88.1532 31.5015 88.1253 31.5694C88.0975 31.6372 88.0557 31.6985 88.0025 31.7491C87.9494 31.8003 87.8866 31.8404 87.8177 31.8671C87.7489 31.8939 87.6754 31.9068 87.6016 31.905H83.3376C83.3972 32.0956 83.4882 32.275 83.6067 32.436C83.723 32.5943 83.8638 32.7334 84.0238 32.8479C84.1847 32.9637 84.3626 33.0541 84.5512 33.1158C84.7447 33.1797 84.9474 33.2119 85.1512 33.2112C85.3727 33.2131 85.5928 33.1768 85.8019 33.104C86.0024 33.0317 86.1883 32.9243 86.3508 32.7869C86.4553 32.6999 86.5866 32.6515 86.7227 32.6497ZM86.9649 30.8057C86.905 30.6148 86.8131 30.4353 86.6931 30.2748C86.4556 29.9564 86.1246 29.7192 85.7459 29.596C85.5551 29.5326 85.3551 29.5004 85.1539 29.5007C84.951 29.5003 84.7493 29.5325 84.5566 29.596C84.3663 29.6578 84.1866 29.7481 84.0238 29.8639C83.8627 29.9781 83.721 30.1172 83.604 30.2759C83.4857 30.4362 83.3965 30.6159 83.3403 30.8068L86.9649 30.8057Z" fill="#16A085"/>
<path d="M89.8527 28.9473V29.0544C90.1166 28.8458 90.4129 28.6815 90.7299 28.568C91.0547 28.4539 91.3968 28.3968 91.7412 28.3992C91.9112 28.4 92.081 28.4106 92.2497 28.4308C92.4204 28.4494 92.5884 28.4875 92.7502 28.5444C92.89 28.5926 93.0183 28.669 93.127 28.7689C93.1768 28.8166 93.216 28.8742 93.242 28.938C93.2679 29.0018 93.2801 29.0703 93.2777 29.1391C93.2777 29.2129 93.2621 29.2859 93.2319 29.3534C93.2022 29.4189 93.1612 29.4787 93.1108 29.5301C93.0604 29.5815 93 29.6219 92.9332 29.6491C92.8632 29.6777 92.7882 29.6921 92.7126 29.6914C92.6305 29.6882 92.55 29.6685 92.4758 29.6335C92.2406 29.5435 91.9904 29.4986 91.7385 29.5012C91.4856 29.4997 91.235 29.549 91.0017 29.6464C90.7782 29.7394 90.5746 29.8739 90.4017 30.0428C90.2301 30.2115 90.093 30.4116 89.998 30.6321C89.8988 30.8606 89.8484 31.1071 89.85 31.3559V33.7667C89.8515 33.839 89.8379 33.9109 89.8101 33.9777C89.7824 34.0446 89.741 34.105 89.6886 34.1551C89.6371 34.2072 89.5756 34.2483 89.5077 34.2759C89.4398 34.3035 89.3669 34.3171 89.2936 34.3158C89.2193 34.3176 89.1454 34.3042 89.0765 34.2766C89.0075 34.2489 88.945 34.2076 88.8926 34.1551C88.8402 34.105 88.7988 34.0446 88.771 33.9777C88.7433 33.9109 88.7297 33.839 88.7312 33.7667V28.9473C88.7297 28.8749 88.7433 28.8031 88.771 28.7362C88.7988 28.6694 88.8402 28.609 88.8926 28.5589C88.945 28.5064 89.0075 28.4651 89.0765 28.4374C89.1454 28.4098 89.2193 28.3964 89.2936 28.3981C89.3669 28.3969 89.4398 28.4104 89.5077 28.4381C89.5756 28.4657 89.6371 28.5068 89.6886 28.5589C89.7414 28.6088 89.7833 28.6691 89.8116 28.7359C89.8398 28.8028 89.8539 28.8747 89.8527 28.9473Z" fill="#16A085"/>
<path d="M96.8365 35.5791L96.8511 28.9547L116.68 9.21568L120 12.5206L96.8365 35.5791Z" fill="#3B5875"/>
<path d="M107.403 6.62648L107.386 0L119.97 12.5265L116.65 15.8314L107.403 6.62648Z" fill="#3B5875"/>
<path d="M96.8586 26.2573L96.8731 19.633L107.316 9.2157L110.636 12.5206L96.8586 26.2573Z" fill="#E67E22"/>
<path d="M100.706 9.27837L100.69 2.65189L110.606 12.5265L107.286 15.8315L100.706 9.27837Z" fill="#E67E22"/>
</g>
<defs>
<clipPath id="clip0">
<rect width="120" height="36.8504" fill="white"/>
</clipPath>
</defs>
</svg>
