<svg width="53" height="80" viewBox="0 0 53 80" fill="none" xmlns="http://www.w3.org/2000/svg">
<g clip-path="url(#clip0)">
<path d="M13.1127 80.0001C20.3486 80.0001 26.2222 74.0257 26.2222 66.6657V53.3313H13.1127C5.8768 53.3313 0.00314331 59.3057 0.00314331 66.6657C0.00314331 74.0257 5.8768 80.0001 13.1127 80.0001Z" fill="#0ACF83"/>
<path d="M0.00628662 39.9999C0.00628662 32.6399 5.87994 26.6655 13.1158 26.6655H26.2254V53.3311H13.1127C5.87679 53.3343 0.00628662 47.3599 0.00628662 39.9999Z" fill="#A259FF"/>
<path d="M0.00549316 13.3344C0.00549316 5.9744 5.876 0 13.1119 0H26.2214V26.6656H13.1119C5.876 26.6656 0.00549316 20.6944 0.00549316 13.3344Z" fill="#F24E1E"/>
<path d="M26.2222 0H39.3318C46.5677 0 52.4413 5.9744 52.4413 13.3344C52.4413 20.6944 46.5677 26.6688 39.3318 26.6688H26.2222V0Z" fill="#FF7262"/>
<path d="M52.4382 39.9999C52.4382 47.3599 46.5645 53.3343 39.3286 53.3343C32.0927 53.3343 26.2222 47.3599 26.2222 39.9999C26.2222 32.6399 32.0959 26.6655 39.3318 26.6655C46.5677 26.6655 52.4382 32.6399 52.4382 39.9999Z" fill="#1ABCFE"/>
</g>
<defs>
<clipPath id="clip0">
<rect width="52.4444" height="80" fill="white"/>
</clipPath>
</defs>
</svg>
