<svg width="80" height="80" viewBox="0 0 80 80" fill="none" xmlns="http://www.w3.org/2000/svg">
<path d="M5 0L11.375 72L40 80L68.615 72.005L75 0H5Z" fill="white"/>
<path d="M5.97472 0C5.2394 0 4.69159 0.599222 4.7569 1.33141L10.9555 70.8596C11.0208 71.592 11.6537 72.3521 12.3624 72.5489L38.6663 79.8523C39.3749 80.049 40.5341 80.049 41.2429 79.8528L67.6268 72.5373C68.3354 72.3407 68.969 71.5807 69.0341 70.8485L75.2431 1.33141C75.3089 0.599222 74.7604 0 74.0251 0H5.97472ZM62.0422 15.946C61.9836 16.5992 61.8824 17.7331 61.8171 18.4654L61.6538 20.2896C61.588 21.0217 61.4944 22.0687 61.445 22.6161C61.3958 23.1636 61.3491 23.6115 61.3405 23.6115C61.3322 23.6115 60.7236 23.6115 59.9885 23.6115H41.3368C40.6015 23.6115 39.9938 23.6115 39.9859 23.6115C39.9779 23.6115 39.3696 23.6115 38.6343 23.6115H28.8111C28.0758 23.6115 27.528 24.2108 27.5933 24.943L28.1663 31.3477C28.2316 32.0797 28.8869 32.6791 29.622 32.6791H38.6344C39.3698 32.6791 39.9779 32.6791 39.986 32.6791C39.9941 32.6791 40.6018 32.6791 41.337 32.6791H56.828C57.5633 32.6791 58.7011 32.6791 59.3564 32.6791C60.0113 32.6791 60.4989 33.2136 60.4396 33.8668C60.3799 34.5199 60.278 35.6541 60.2128 36.3861L58.3705 57.0347C58.3047 57.767 58.2216 58.7025 58.1858 59.1138C58.1492 59.5247 57.5399 60.0217 56.8313 60.2183L41.2884 64.528C40.5798 64.7243 39.9912 64.8868 39.9801 64.8893C39.9691 64.8916 39.3807 64.7326 38.6718 64.5361L23.1123 60.2186C22.4037 60.0221 21.7706 59.2621 21.7054 58.5297L20.7039 47.2882C20.6386 46.5559 21.187 45.9567 21.9223 45.9567H23.3423C24.0776 45.9567 25.2808 45.9567 26.0159 45.9567H28.1334C28.8688 45.9567 29.5234 46.5559 29.5892 47.2882L29.982 51.6889C30.0474 52.4212 30.6813 53.177 31.3913 53.3687L38.6693 55.3342C39.3788 55.5259 39.9623 55.6828 39.9655 55.6828C39.9688 55.6828 40.5519 55.5256 41.2618 55.3339L48.5529 53.3637C49.2625 53.172 49.897 52.4159 49.9628 51.6839L50.7534 42.8671C50.8192 42.1348 50.2714 41.5355 49.5361 41.5355H41.337C40.6016 41.5355 39.994 41.5355 39.986 41.5355C39.978 41.5355 39.3698 41.5355 38.6344 41.5355H21.5259C20.7906 41.5355 20.1359 40.9362 20.0706 40.2041L18.1306 18.4656C18.0653 17.7332 17.964 16.5996 17.9054 15.9462C17.8474 15.2931 18.401 14.7585 19.1364 14.7585H38.6344C39.3698 14.7585 39.9779 14.7585 39.986 14.7585C39.9941 14.7585 40.6018 14.7585 41.337 14.7585H60.8114C61.5466 14.7582 62.1005 15.2926 62.0422 15.946Z" fill="#DD512A"/>
</svg>
