<svg xmlns="http://www.w3.org/2000/svg" viewBox="0 0 99.81 79.71"><defs><style>.cls-1{fill:#fff;}.cls-2{fill:#0769ad;}</style></defs><title>jquery</title><g id="Слой_2" data-name="Слой 2"><g id="Слой_1-2" data-name="Слой 1"><path class="cls-1" d="M86,59.47l-.4-1.79c-.32-1.31-1.26-1.89-3.36-1.89H73.32c-.23,0-.41.09-.45.31l-3.36,16a1.84,1.84,0,0,0-.05.45c.05.09.41.09.63.09h3.09a2.53,2.53,0,0,0,.68-.05c.13,0,.18-.36.22-.54l1.08-5.6,1.34-6.24a.49.49,0,0,1,.45-.36h8.79A.28.28,0,0,0,86,59.47Z"/><path class="cls-1" d="M98.47,53h-3.9c-.22,0-.45.23-.58.41L87.13,63.42c-.14.18-.27.18-.32-.05l-.49-2.19a.53.53,0,0,0-.45-.36H81.48a.27.27,0,0,0-.27.36l2,6.91a1.7,1.7,0,0,1,0,.71l-.94,3.5c0,.18.09.27.27.27h4.35c.22,0,.4,0,.45-.27l.94-3.54a2,2,0,0,1,.31-.63L99.73,53.32c.13-.18.09-.36-.09-.36Z"/><path class="cls-1" d="M52.65,55.79h-4c-.23,0-.41.09-.45.27l-1.3,6.15-1.3,5.88c0,.17-.23.17-.45.17h-2.6c-2.6,0-2.29-1.61-1.75-4.08,0,0,1.66-8.12,1.66-8.12,0-.18-.09-.27-.31-.27H38.39a.42.42,0,0,0-.45.27l-1.52,8.12c-.77,4.4-.77,8.26,4.3,8.39h8a.42.42,0,0,0,.45-.27l1.74-8.16L52.65,56S52.74,55.79,52.65,55.79Z"/><path class="cls-1" d="M13.1,55.79H8.84c-.22,0-.4.05-.45.27l-.76,3.32a.3.3,0,0,0,.31.36H12a.47.47,0,0,0,.44-.4L13.19,56S13.28,55.79,13.1,55.79Z"/><path class="cls-1" d="M7.68,60.82a.47.47,0,0,0-.45.36l-.59,2.55-1.3,5.88s-.67,3.1-.76,3.32c0,0-.58,2.25-1.93,2.16-.62,0-1.34-.18-1.34-.18-.4-.14-.4.27-.45.49L0,79a.35.35,0,0,0,.27.41,26.93,26.93,0,0,0,3.14.27h.22c3.18,0,4.89-1.89,6-7l1.26-6L12,61.22a.33.33,0,0,0-.27-.4"/><path class="cls-1" d="M62.69,55.75c-7.17,0-8.88,4.44-9.82,8.79s-.85,8,6.55,8h6.77a.53.53,0,0,0,.45-.4l.71-2.83c.05-.18-.09-.27-.31-.27H60.36c-2.42,0-3.27-.76-3.18-2.42,0-.18.22-.67.4-.67H67.85c.45,0,.45-.27.45-.27C69.42,61,69.46,55.75,62.69,55.75Zm1.88,7c0,.22-.71.18-.71.18l-5.56,0c-.18,0-.27-.27-.27-.45,0,0,0-.23,0-.27.45-1.48,1.71-2.34,3.77-2.34,2.29,0,2.78,1.13,2.78,2.43"/><path class="cls-1" d="M31.75,68a47.73,47.73,0,0,0,2.47-7.67C34.85,56.51,33,51,25.66,51S15.3,56.24,14.09,61.94s.36,10.68,7.58,10.63h11a.49.49,0,0,0,.45-.36L34,68.67a.29.29,0,0,0-.27-.36H32a.26.26,0,0,1-.27-.27S31.75,68,31.75,68ZM28,65l-.81,2.83a.5.5,0,0,1-.49.31H22.43c-3.23,0-4-2.51-3.23-6.24s2.33-6.14,5.51-6.41c4.35-.32,5.25,2.73,4.17,6.28Z"/><path class="cls-2" d="M28,11.82c-4.48,6.25-3.9,14.52-.49,21.16a1.39,1.39,0,0,0,.2.58c0,.09.09.19.19.28s.1.1.1.2.1.19.19.29l.3.57c.09.1.09.2.19.29s.29.39.39.58.1.19.19.29c.2.29.39.48.59.77l.1.09c.19.2.29.48.48.68s.1.19.2.19c.19.19.29.38.48.58l.2.19a2.17,2.17,0,0,0,.68.67,4.81,4.81,0,0,0,.68.67l.2.2.48.48.2.19a4.26,4.26,0,0,1,.68.67l.1.1a4.64,4.64,0,0,0,.68.58c.1.09.19.09.29.19s.39.29.59.38.19.1.29.2a2.14,2.14,0,0,0,.58.38l.2.19h.09c.2.1.39.29.59.39s.19.09.29.19l.88.58c.09,0,.19.09.29.09l.68.39c.1.09.29.09.39.19s.29.19.49.29a.09.09,0,0,1,.09.1c.1,0,.1.09.2.09.29.1.49.29.78.39.1,0,.1,0,.19.09.29.1.59.29.88.39.1,0,.1.09.19.09l.88.29H44c.29.1.68.19,1,.29a.35.35,0,0,1,.2.1c.29.09.68.19,1,.29C67.56,51.54,73.79,35,73.79,35c-5.25,6.73-14.51,8.46-23.37,6.54-.29-.1-.68-.19-1-.29-.1,0-.19,0-.19-.1l-1-.28a.1.1,0,0,1-.1-.1l-.87-.29a.36.36,0,0,1-.2-.09c-.29-.1-.58-.29-.87-.39-.1,0-.1-.1-.2-.1a2.94,2.94,0,0,1-.78-.38c-.09,0-.09-.1-.19-.1l-.59-.29c-.09-.09-.29-.09-.38-.19s-.49-.29-.69-.38a.28.28,0,0,0-.19-.1l-.88-.58c-.1-.09-.19-.09-.29-.19s-.49-.29-.68-.38l-.2-.19a2.52,2.52,0,0,1-.58-.49c-.1-.09-.2-.09-.29-.19s-.39-.29-.59-.38-.19-.1-.29-.2-.49-.38-.68-.57a.1.1,0,0,1-.1-.1L38,34.52l-.19-.19c-.2-.2-.39-.29-.49-.49l-.2-.19A4.33,4.33,0,0,0,36.4,33c-.19-.19-.39-.48-.68-.77L35.53,32c-.2-.2-.3-.39-.49-.58l-.2-.19c-.29-.1-.48-.39-.68-.58C29.29,24.13,27.54,15,31.44,7.59"/><path class="cls-2" d="M41.73,6c-3.24,4.77-3,11-.49,16a12.11,12.11,0,0,0,1.47,2.39,10.89,10.89,0,0,0,1.67,2.08c.19.3.49.5.68.8l.2.2a5.48,5.48,0,0,0,.78.7,6,6,0,0,0,.89.69l.19.2c.3.2.59.5.88.7.1.1.3.2.4.3s.09.1.19.1.49.29.69.39a.1.1,0,0,1,.1.1l.59.3c.09,0,.09.1.19.1s.3.1.39.2h.1c.3.1.59.3.88.4.1,0,.1.1.2.1s.49.2.69.3.19.1.29.1a1.4,1.4,0,0,0,.69.19c.1,0,.19.1.29.1.3.1.59.2,1,.3,16.68,2.79,20.5-10.24,20.5-10.24C71.74,27.54,65,29.93,57.81,28c-.29-.1-.59-.2-1-.3-.1,0-.19-.1-.29-.1s-.49-.1-.69-.2-.2-.1-.29-.1-.49-.2-.69-.3-.1-.1-.2-.1c-.29-.1-.58-.3-.88-.4a.71.71,0,0,0-.39-.19c-.1,0-.2-.1-.3-.1l-.58-.3a.1.1,0,0,1-.1-.1c-.2-.1-.49-.3-.69-.4s-.1-.1-.2-.1-.29-.2-.39-.3a5.89,5.89,0,0,1-.88-.69l-.2-.2a20.25,20.25,0,0,1-6.76-9.85A15.24,15.24,0,0,1,44.47,2.07"/><path class="cls-2" d="M53.33,1.8a10.37,10.37,0,0,0-.79,9.6,13,13,0,0,0,7.61,7.2.6.6,0,0,0,.4.1c.1,0,.1,0,.2.1s.39.1.59.2c9.29,1.8,11.76-4.8,12.45-5.8-2.17,3.2-5.93,4-10.47,2.9-.4-.1-.79-.2-1.09-.3s-.89-.3-1.29-.5a17.25,17.25,0,0,1-2.27-1.4c-4.05-3.1-6.62-9.1-4-13.9"/></g></g></svg>