<svg xmlns="http://www.w3.org/2000/svg" viewBox="0 0 402.95 96.67"><defs><style>.cls-1{fill:#de4f4f;}.cls-1,.cls-2{fill-rule:evenodd;}.cls-2{fill:#fff;}</style></defs><title>meteor</title><g id="Слой_2" data-name="Слой 2"><g id="svg2"><g id="g6"><path id="path8" class="cls-1" d="M239.06,0l84.43,89.44s2.88,2,5.08-.34a3.74,3.74,0,0,0,.51-4.73L239.06,0Z"/><path id="path10" class="cls-1" d="M265.79,8.45l64.3,69.32s2.88,2,5.08-.34a3.74,3.74,0,0,0,.51-4.73L265.79,8.45Z"/><path id="path12" class="cls-1" d="M247,26.54l64.3,69.32s2.88,2,5.08-.34a3.74,3.74,0,0,0,.5-4.73L247,26.54Z"/><path id="path14" class="cls-1" d="M288.39,15.72l44.93,48.43s2,1.42,3.54-.23a2.62,2.62,0,0,0,.36-3.31L288.39,15.72Z"/><path id="path16" class="cls-1" d="M253.2,47.51l44.92,48.43s2,1.41,3.55-.24a2.63,2.63,0,0,0,.35-3.31L253.2,47.51Z"/><path id="path18" class="cls-1" d="M311.48,26.21l20.36,22a1.41,1.41,0,0,0,1.75-.11,1.17,1.17,0,0,0,.18-1.55L311.48,26.21Z"/><path id="path20" class="cls-1" d="M264.44,69.83l20.36,22a1.41,1.41,0,0,0,1.75-.11,1.17,1.17,0,0,0,.18-1.55L264.44,69.83Z"/></g><g id="g22"><path id="path24" class="cls-2" d="M351.14,36.21V95.58h13.43V76.43h10.07l13,19.15H403L388.56,75s12.77-5,12.77-18.75c0-19.34-17.57-20-17.57-20Zm13.43,11.5V64.94h17.27s6.6,0,6.6-8.62c0-8.94-8-8.61-8-8.61Z"/><path id="path26" class="cls-2" d="M202.43,36.22V95.58h45.09V84.09H215.86V71.64h27.35V60.15H215.86V47.7h31.66V36.22Z"/><path id="path28" class="cls-2" d="M137.19,36.22V47.71h17.75V95.58h13.43V47.71h17.75V36.22Z"/><path id="path30" class="cls-2" d="M75.79,36.22V95.58h45.09V84.09H89.22V71.64h27.35V60.15H89.22V47.7h31.66V36.22Z"/><path id="path32" class="cls-2" d="M0,36.21V95.58H13.42V58.24L29.73,82.17,46.05,58.24V95.58H59.48V36.21H46.05L29.73,60.63,13.42,36.21Z"/></g></g></g></svg>