<svg width="63" height="80" viewBox="0 0 63 80" fill="none" xmlns="http://www.w3.org/2000/svg">
<g clip-path="url(#clip0)">
<path d="M49.4757 24.8262L61.4044 5.7417H32.7114L28.7469 12.1018L49.4757 24.8262Z" fill="url(#paint0_linear)"/>
<path opacity="0.15" d="M28.7494 12.1018L30.7795 8.83728L49.4782 24.8263L28.7494 12.1018Z" fill="black"/>
<path d="M55.7855 59.427V30.7363L49.5956 26.8672L36.5794 47.427L55.7855 59.427Z" fill="url(#paint1_linear)"/>
<path opacity="0.15" d="M36.5794 47.4258L39.7948 49.4332L49.5956 26.8672L36.5794 47.4258Z" fill="black"/>
<path d="M9.57253 0V28.6912L16.2113 32.5598L49.4716 24.8227L9.57253 0Z" fill="url(#paint2_linear)"/>
<path d="M16.0723 34.7475L4.1442 53.5091H32.8354L49.5986 26.8672L16.0723 34.7475Z" fill="url(#paint3_linear)"/>
<path d="M0.00119844 77.8152H1.66943L2.50354 67.6273H0.795164V65.6613H5.38279L8.5203 73.6255C8.75819 74.3206 8.85766 74.797 8.85766 74.797H8.89721C8.89721 74.797 8.99668 74.3206 9.25495 73.6255L12.3727 65.6613H16.9597V67.6273H15.2723L16.086 77.8152H17.7543V79.7615H11.9748V77.8152H13.5436L13.0276 70.7067C12.9881 70.2093 13.0876 69.3956 13.0876 69.3956H13.0276C13.0276 69.3956 12.8682 70.1692 12.6903 70.6468L9.98899 77.1399H7.76469L5.064 70.6468C4.88484 70.1692 4.74642 69.3956 4.74642 69.3956H4.66672C4.66672 69.3956 4.76619 70.2081 4.72664 70.7067L4.21072 77.8152H5.79925V79.7615H0V77.8152H0.00119844Z" fill="white"/>
<path d="M26.0397 65.4227C30.2097 65.4227 33.3472 68.5806 33.3472 72.6128C33.3472 76.7636 30.2097 79.9999 26.0397 79.9999C21.8685 79.9999 18.731 76.7636 18.731 72.6128C18.731 68.58 21.8685 65.4227 26.0397 65.4227ZM26.0397 77.7157C28.5816 77.7157 30.6675 75.5118 30.6675 72.6122C30.6675 69.8312 28.5822 67.7058 26.0397 67.7058C23.4972 67.7058 21.4119 69.8318 21.4119 72.6122C21.4119 75.5124 23.4978 77.7157 26.0397 77.7157Z" fill="white"/>
<path d="M34.6409 77.8152H36.3277V67.6273H34.6409V65.6613H40.7373C41.8711 65.6613 42.7639 65.7212 43.6771 65.998C46.4173 66.8124 48.2449 69.2356 48.2449 72.7105C48.2449 76.0469 46.5563 78.4498 43.876 79.3438C42.9215 79.6806 41.9298 79.7597 40.7571 79.7597H34.6409V77.8152ZM40.6385 77.6768C41.5313 77.6768 42.2468 77.5971 42.9419 77.3179C44.5508 76.6623 45.5634 75.0145 45.5634 72.7111C45.5634 70.3274 44.4914 68.6999 42.8424 68.0641C42.1281 67.7861 41.472 67.7471 40.6385 67.7471H38.9295V77.6768H40.6385Z" fill="white"/>
<path d="M49.74 77.8152H50.9918L54.5463 72.6122L51.09 67.6273H49.8383V65.6613H55.1617V67.6273H53.7716L55.7178 70.5473C55.9773 70.8637 56.1157 71.1429 56.1157 71.1429H56.1546C56.1546 71.1621 56.2925 70.8835 56.5322 70.5473L58.4179 67.6273H57.0673V65.6613H62.1912V67.6273H60.9598L57.3854 72.8099L60.8999 77.8152H62.151V79.7615H56.8084V77.8152H58.1986L56.2325 74.8563C55.9749 74.5195 55.8359 74.2415 55.8359 74.2415H55.7963C55.7568 74.2415 55.6369 74.5201 55.4194 74.8563L53.5331 77.8152H54.9023V79.7615H49.7406L49.74 77.8152Z" fill="white"/>
</g>
<defs>
<linearGradient id="paint0_linear" x1="56.5405" y1="16.3872" x2="35.2596" y2="2.52994" gradientUnits="userSpaceOnUse">
<stop stop-color="#80C3E6"/>
<stop offset="1" stop-color="#3380C2"/>
</linearGradient>
<linearGradient id="paint1_linear" x1="60.2745" y1="48.3881" x2="44.3672" y2="37.8832" gradientUnits="userSpaceOnUse">
<stop stop-color="#F38649"/>
<stop offset="0.1849" stop-color="#F28147"/>
<stop offset="0.4091" stop-color="#EF7242"/>
<stop offset="0.6537" stop-color="#EA5A3A"/>
<stop offset="0.911" stop-color="#E4382E"/>
<stop offset="1" stop-color="#E12A29"/>
</linearGradient>
<linearGradient id="paint2_linear" x1="7.85888" y1="25.9478" x2="38.2923" y2="6.93087" gradientUnits="userSpaceOnUse">
<stop stop-color="#42AB4A"/>
<stop offset="1" stop-color="#ADD155"/>
</linearGradient>
<linearGradient id="paint3_linear" x1="14.5033" y1="59.9819" x2="39.2402" y2="20.3945" gradientUnits="userSpaceOnUse">
<stop stop-color="#42AB4A"/>
<stop offset="1" stop-color="#ADD155"/>
</linearGradient>
<clipPath id="clip0">
<rect width="62.5" height="80" fill="white"/>
</clipPath>
</defs>
</svg>
