<svg width="80" height="80" viewBox="0 0 80 80" fill="none" xmlns="http://www.w3.org/2000/svg">
<path d="M67.6623 28.0173C66.524 27.6139 65.3283 27.2384 64.0827 26.8918C64.1235 26.7631 64.1653 26.6339 64.205 26.5058C66.1683 20.1743 67.7988 11.6149 64.4173 6.79658C63.0197 4.80125 60.9335 3.74675 58.3842 3.74675C54.7392 3.74675 50.1585 5.92375 45.1377 10.0419C43.5852 11.3154 42.0153 12.7531 40.4453 14.3352C38.8752 12.7527 37.3052 11.3149 35.7525 10.0414C30.7322 5.92325 26.1517 3.74658 22.5067 3.74658C19.9573 3.74658 17.871 4.80125 16.474 6.79575C13.0937 11.6162 14.7233 20.1746 16.6858 26.5054C16.7027 26.5598 16.7205 26.6144 16.7377 26.6688C15.1948 27.0758 13.7242 27.5257 12.338 28.0171C4.38167 30.8369 0 34.8073 0 39.1968C0 43.5817 4.38167 47.5489 12.338 50.3672C13.8682 50.9092 15.5022 51.4001 17.2215 51.8392C17.0343 52.3942 16.8555 52.9461 16.6857 53.4938C14.7233 59.8252 13.0935 68.3844 16.4735 73.2043C17.8708 75.1989 19.9567 76.2533 22.5055 76.2533C26.1505 76.2533 30.731 74.0764 35.752 69.9577C37.3048 68.6839 38.875 67.2459 40.4453 65.6632C42.0158 67.2461 43.5862 68.6842 45.139 69.9581C50.1597 74.0764 54.74 76.2533 58.3852 76.2533C60.934 76.2533 63.02 75.1989 64.4167 73.2054C67.799 68.3857 66.1685 59.8259 64.205 53.4936C64.0135 52.8754 63.8092 52.2521 63.5955 51.6247C65.0165 51.2417 66.3763 50.8226 67.6618 50.3672C75.6183 47.5488 80 43.5817 80 39.1968C80 34.8073 75.6183 30.8369 67.6623 28.0173ZM47.252 12.6189C51.6067 9.04708 55.56 7.07992 58.3843 7.07992C59.8392 7.07992 60.9197 7.61275 61.6882 8.71008C63.7132 11.5957 63.4322 17.9841 60.8553 26.0817C57.1762 25.2544 53.1508 24.6561 48.9213 24.3059C46.9032 21.5777 44.8298 19.0444 42.742 16.7526C44.2533 15.2252 45.7623 13.8407 47.252 12.6189ZM28.3283 50.4599C25.9615 50.1879 23.7248 49.8374 21.6352 49.4221C22.3737 47.5414 23.2212 45.5951 24.1765 43.6016C25.4617 45.9079 26.8505 48.2033 28.3283 50.4599ZM21.0648 29.0774C23.6517 28.5414 26.4715 28.1051 29.4922 27.7962C27.5757 30.6084 25.7942 33.4936 24.1765 36.3963C22.965 33.8681 21.9275 31.4161 21.0648 29.0774ZM25.9955 39.9989C27.9875 36.2451 30.344 32.3691 33.0672 28.4846C33.3103 28.1379 33.5547 27.7946 33.7997 27.4538C35.7975 27.3379 37.8663 27.2757 40.0002 27.2757C42.468 27.2757 44.8492 27.3584 47.1335 27.5121C47.3643 27.8336 47.5947 28.1572 47.8238 28.4841C50.5463 32.3691 52.9025 36.2451 54.8942 39.9989C53.027 43.5174 50.8395 47.1432 48.3307 50.7832C45.6852 50.9929 42.9023 51.1071 40 51.1071C37.439 51.1071 34.9715 51.0179 32.6087 50.8532C30.079 47.1899 27.8747 43.5401 25.9955 39.9989ZM56.7132 43.6023C57.64 45.5363 58.4648 47.4254 59.1875 49.2537C57.1468 49.6839 54.9583 50.0516 52.6387 50.3434C54.0875 48.1244 55.4502 45.8684 56.7132 43.6023ZM51.4692 27.8999C54.4478 28.2357 57.222 28.6963 59.7592 29.2536C58.9095 31.5389 57.8942 33.9311 56.7132 36.3959C55.1155 33.5293 53.3583 30.6792 51.4692 27.8999ZM40.4455 19.1812C41.8148 20.6938 43.1792 22.3166 44.5263 24.0354C43.034 23.9744 41.5237 23.9426 40 23.9426C38.7878 23.9424 37.584 23.9629 36.391 24.0016C37.7297 22.2952 39.0852 20.6839 40.4455 19.1812ZM19.2037 8.70892C19.9715 7.61275 21.0518 7.07992 22.5067 7.07992C25.3308 7.07992 29.2843 9.04692 33.6387 12.6186C35.1283 13.8406 36.6375 15.2251 38.1492 16.7526C36.08 19.0237 34.0253 21.5319 32.0243 24.2321C27.7673 24.5449 23.7042 25.1074 19.976 25.9001C17.4537 17.8896 17.1935 11.5756 19.2037 8.70892ZM3.33333 39.1968C3.33333 35.8076 8.77583 32.1864 17.8093 29.8359C19.0155 33.1519 20.5137 36.5706 22.2562 39.9991C20.7703 42.9224 19.4627 45.8387 18.3617 48.6904C8.99783 46.3476 3.33333 42.6514 3.33333 39.1968ZM33.6382 67.3804C29.2833 70.9526 25.3297 72.9199 22.5057 72.9199C21.0513 72.9199 19.9712 72.3873 19.2032 71.2911C17.068 68.2463 17.4943 61.3116 20.4723 52.5861C23.696 53.2486 27.1607 53.7414 30.779 54.0516C33.1683 57.4099 35.6483 60.5006 38.1492 63.2459C36.6372 64.7736 35.128 66.1584 33.6382 67.3804ZM35.1138 54.3329C36.7228 54.4041 38.354 54.4404 40 54.4404C41.9622 54.4404 43.903 54.3891 45.8107 54.2882C44.0497 56.6348 42.2517 58.8218 40.4455 60.8171C38.6505 58.8344 36.864 56.6626 35.1138 54.3329ZM61.6873 71.2916C60.9198 72.3872 59.8397 72.9199 58.3852 72.9199C55.5612 72.9199 51.6077 70.9528 47.253 67.3809C45.763 66.1587 44.2537 64.7739 42.7417 63.2459C45.2638 60.4774 47.7647 57.3571 50.173 53.9656C53.7572 53.6239 57.1807 53.1012 60.3563 52.4107C63.3895 61.2202 63.8372 68.2282 61.6873 71.2916ZM62.4482 48.4824C61.364 45.6972 60.0835 42.8516 58.6337 39.9993C60.3387 36.6451 61.8087 33.3008 63.001 30.0527C71.5487 32.4051 76.6667 35.9101 76.6667 39.1968C76.6667 42.5508 71.3282 46.1326 62.4482 48.4824Z" fill="#00D8FF"/>
<path d="M40.5847 46.9397C44.6883 46.9397 48.0268 43.6012 48.0268 39.4975C48.0268 35.3938 44.6883 32.0552 40.5847 32.0552C36.4813 32.0552 33.143 35.3938 33.143 39.4975C33.143 43.6012 36.4813 46.9397 40.5847 46.9397ZM40.5847 35.3887C42.8503 35.3887 44.6935 37.232 44.6935 39.4977C44.6935 41.7632 42.8503 43.6065 40.5847 43.6065C38.3193 43.6065 36.4763 41.7632 36.4763 39.4977C36.4763 37.232 38.3193 35.3887 40.5847 35.3887Z" fill="#00D8FF"/>
</svg>
