<svg xmlns="http://www.w3.org/2000/svg" viewBox="0 0 108.69 32.66"><defs><style>.cls-1{fill:#f89920;}.cls-1,.cls-2,.cls-3,.cls-4,.cls-6{fill-rule:evenodd;}.cls-2{fill:#ffbe22;}.cls-3,.cls-5{fill:#f0670a;}.cls-4{fill:#ffd00e;}.cls-6,.cls-7{fill:#fff;}</style></defs><title>zeplin</title><g id="Слой_2" data-name="Слой 2"><g id="Слой_1-2" data-name="Слой 1"><g id="svg30"><g id="g884"><g id="g891"><path id="path4" class="cls-1" d="M4.35,23.26,0,18.4l13.3-4.84,2.07,5.69Z"/><path id="path6" class="cls-2" d="M4.31,23.17l-.2,6.52,13.3-4.84-2.07-5.69Z"/><path id="path8" class="cls-3" d="M41.28,9.83c1.9,5.49-4.21,12.72-13.73,16.18S8.71,27.87,6.63,22.44Z"/><path id="path10" class="cls-4" d="M41.28,9.82c-2.06-5.44-11.4-7-20.93-3.59S4.71,16.94,6.63,22.44Z"/><path id="path12" class="cls-1" d="M41.28,9.83c1.19,3.68-5.45,9.41-14.94,12.86S8.09,26,6.63,22.44Z"/><path id="path14" class="cls-2" d="M41.28,9.83c-1.43-3.6-10.22-3.73-19.72-.27S5.42,18.76,6.63,22.44Z"/><path id="path16" class="cls-5" d="M25.29,4.83C24.39,1.7,23.36,0,22.19,0c-2.27.06-3,7.24-2.29,16.44S22.56,32.72,25,32.66c1.43,0,2.23-2.32,2.52-6.29,0-.08-.09,0-.08-.11s0-.14-.07-.14h-.3c-.25,3.85-1,6.07-2.08,6.09-2,.06-3.87-6.85-4.58-15.78s0-15.91,1.79-16C23.05.44,24,2,24.84,4.92Z"/><path id="path18" class="cls-5" d="M14.08,2.6c-1.93,1.19,1,7.79,6.23,15.39S30.76,30.75,32.8,29.5c1.14-.7.82-2.82-.65-6a.23.23,0,0,0-.31-.12.23.23,0,0,0-.12.3h0c1.36,3,1.66,4.93.82,5.44-1.67,1-6.77-4-11.86-11.39S12.8,3.93,14.32,3c.81-.5,2.73.7,5.27,3.3l.23.21c.08,0,0-.15.1-.21a.24.24,0,0,0,0-.33h0C17.2,3.2,15.16,2,14.07,2.6Z"/></g><g id="g897"><g id="g26"><path id="path20" class="cls-6" d="M62.26,19.09h5.09v2.54H59.29V11h8.06v2.54H62.26v1.28h3.18v2.54H62.26Zm23.11,0H90v2.54H82.41V11h3ZM93,11h3V21.6H93Zm6.36,0V21.6h2.76V15.69l3.81,5.94h2.76V11h-2.76v6l-3.81-6Z"/><path id="path22" class="cls-7" d="M73.29,15.91h2.12a1.27,1.27,0,0,0,1.27-1.27h0a1.27,1.27,0,0,0-1.27-1.27H73.29ZM75.83,11a3.61,3.61,0,0,1,3.61,3.6h0a3.61,3.61,0,0,1-3.61,3.61H73.58V21.6h-3V11Z"/><path id="path24" class="cls-6" d="M55.9,13.57V11H47.21v2.54h4.87l-4.87,5.52V21.6H55.9V19.09H51.23Z"/></g></g></g></g></g></g></svg>